<svg width="124" height="28" viewBox="0 0 124 28" fill="none" xmlns="http://www.w3.org/2000/svg">
<path d="M38.4 27.6219V0.541875H39.87V4.80187C40.0436 4.61316 40.204 4.41269 40.35 4.20188C40.9507 2.95499 41.8943 1.90517 43.0704 1.17546C44.2464 0.445756 45.6061 0.0664036 46.99 0.0818724C50.34 -0.0181276 53.06 1.22188 54.66 4.20188C55.6781 6.0531 56.2383 8.12107 56.294 10.233C56.3497 12.345 55.8991 14.4396 54.98 16.3419C53.49 19.6819 49.81 21.3419 45.87 20.7319C44.6439 20.6274 43.4635 20.2177 42.4364 19.5399C41.4093 18.8622 40.5683 17.9381 39.99 16.8519V27.6219H38.4ZM39.87 10.1219C40 11.4419 40.05 12.3819 40.2 13.3019C40.78 16.9219 42.92 19.0719 46.28 19.4619C47.8577 19.7212 49.4765 19.4254 50.8605 18.6249C52.2445 17.8244 53.3081 16.5687 53.87 15.0719C54.5157 13.5322 54.8264 11.8728 54.7816 10.2039C54.7368 8.53495 54.3374 6.89463 53.61 5.39187C53.0102 4.05027 51.9902 2.94026 50.7039 2.22948C49.4177 1.5187 47.9351 1.24576 46.48 1.45188C45.1139 1.55085 43.8125 2.07305 42.7569 2.94585C41.7013 3.81865 40.9439 4.99868 40.59 6.32187C40.2768 7.57357 40.0364 8.84236 39.87 10.1219ZM86.28 13.8019C86.0573 15.7085 85.1497 17.4693 83.7259 18.7569C82.3022 20.0445 80.4593 20.7712 78.54 20.8019C72.38 21.1119 69.49 17.0219 69.03 12.3019C68.7107 9.73866 69.1269 7.13751 70.23 4.80187C70.9982 3.19977 72.2563 1.88369 73.8222 1.04411C75.388 0.204544 77.1805 -0.114951 78.94 0.131875C80.6128 0.273653 82.1986 0.938073 83.4728 2.03105C84.7471 3.12403 85.6452 4.59018 86.04 6.22187C86.353 7.70797 86.5833 9.21027 86.73 10.7219H70.54C70.24 15.0019 72.54 18.4419 75.8 19.2719C79.86 20.2719 83.33 18.5119 84.59 14.6519C84.87 13.6619 85.38 13.5219 86.28 13.8019ZM70.54 9.35187H85.01C84.92 4.79187 82.08 1.49187 78.23 1.44187C73.87 1.37187 70.73 4.55187 70.54 9.35187ZM89.26 13.9019H90.68C90.7325 14.9467 91.072 15.9569 91.6612 16.8214C92.2505 17.6858 93.0666 18.3711 94.02 18.8019C95.2172 19.3406 96.5205 19.6024 97.8328 19.5678C99.1452 19.5332 100.433 19.203 101.6 18.6019C102.236 18.3151 102.769 17.8402 103.126 17.2412C103.484 16.6421 103.649 15.9478 103.6 15.2519C103.637 14.5807 103.453 13.9159 103.078 13.3582C102.703 12.8006 102.156 12.3806 101.52 12.1619C99.96 11.5819 98.3 11.2619 96.71 10.7519C95.0556 10.2808 93.438 9.68917 91.87 8.98187C89.31 7.73187 89.15 2.86187 92.05 1.32187C93.5349 0.483911 95.2061 0.0311697 96.9109 0.00496812C98.6158 -0.0212334 100.3 0.379937 101.81 1.17187C102.725 1.6774 103.464 2.44975 103.928 3.38595C104.393 4.32214 104.561 5.3777 104.41 6.41187H103.19C103.19 6.35187 103.08 6.30187 103.08 6.24187C102.93 2.35187 99.67 1.15187 96.17 1.49187C95.1252 1.62075 94.1104 1.92858 93.17 2.40187C92.6051 2.66023 92.1343 3.0876 91.8226 3.62497C91.5109 4.16234 91.3737 4.78321 91.43 5.40187C91.4317 6.02082 91.6249 6.62407 91.9829 7.12894C92.341 7.6338 92.8465 8.01556 93.43 8.22187C94.97 8.78187 96.58 9.14187 98.16 9.58187C99.43 9.93187 100.75 10.1619 101.98 10.5819C102.848 10.8665 103.609 11.408 104.163 12.1348C104.717 12.8616 105.036 13.7393 105.08 14.6519C105.228 15.6517 105.058 16.6729 104.593 17.5705C104.128 18.468 103.392 19.1963 102.49 19.6519C99.15 21.5419 93.65 21.0419 91.2 18.6519C90.5791 18.0274 90.088 17.2861 89.755 16.4709C89.422 15.6556 89.2538 14.7825 89.26 13.9019ZM123.08 6.41187H121.75C121.75 6.23187 121.68 6.07187 121.66 5.92187C121.638 4.92493 121.275 3.96567 120.631 3.20471C119.986 2.44376 119.1 1.92732 118.12 1.74187C116.271 1.21146 114.299 1.30637 112.51 2.01187C111.803 2.21465 111.18 2.64071 110.735 3.22645C110.29 3.81219 110.046 4.52619 110.04 5.26187C110.015 5.98437 110.24 6.69332 110.678 7.26903C111.115 7.84473 111.737 8.25193 112.44 8.42187C114.44 9.04187 116.49 9.42187 118.52 9.98187C119.178 10.1398 119.826 10.3368 120.46 10.5719C121.407 10.9108 122.23 11.5275 122.821 12.3416C123.413 13.1556 123.744 14.1291 123.774 15.1347C123.803 16.1403 123.528 17.1314 122.985 17.9783C122.442 18.8252 121.656 19.4886 120.73 19.8819C119.319 20.5227 117.789 20.8617 116.24 20.8772C114.69 20.8927 113.154 20.5843 111.73 19.9719C110.559 19.4669 109.571 18.6154 108.899 17.532C108.227 16.4485 107.903 15.1851 107.97 13.9119H109.27C109.51 15.0722 110.03 16.1563 110.784 17.0705C111.538 17.9847 112.503 18.7013 113.597 19.1583C114.69 19.6153 115.878 19.799 117.058 19.6933C118.239 19.5876 119.375 19.1958 120.37 18.5519C120.976 18.2371 121.479 17.7551 121.819 17.1631C122.16 16.5711 122.323 15.8939 122.29 15.2119C122.32 14.5403 122.13 13.8772 121.75 13.3232C121.369 12.7691 120.818 12.3544 120.18 12.1419C118.62 11.5619 116.96 11.2519 115.37 10.7419C113.706 10.278 112.079 9.69314 110.5 8.99187C108 7.76187 107.8 2.93187 110.65 1.39187C112.153 0.518804 113.857 0.0498068 115.596 0.0305304C117.334 0.011254 119.048 0.442354 120.57 1.28187C121.441 1.80161 122.141 2.56323 122.587 3.47402C123.033 4.38481 123.204 5.40551 123.08 6.41187ZM35.97 20.3119C35.4464 20.5101 34.8684 20.5097 34.3451 20.3107C33.8218 20.1117 33.3895 19.7279 33.13 19.2319C31.5 16.7919 29.7 14.4619 27.97 12.0819L27.22 11.0819C25.16 13.8419 23.1 16.4919 21.22 19.2419C20.9751 19.716 20.5661 20.0849 20.0694 20.2799C19.5727 20.4749 19.0221 20.4827 18.52 20.3019L26.25 9.93187L19.06 0.561872C19.5776 0.374992 20.1438 0.37243 20.663 0.554616C21.1822 0.736803 21.6227 1.09258 21.91 1.56187C23.58 4.00187 25.43 6.33187 27.27 8.80187C29.12 6.35187 30.95 4.01187 32.66 1.59187C32.9063 1.12549 33.3154 0.7659 33.8096 0.581518C34.3037 0.397135 34.8484 0.400821 35.34 0.591875L32.55 4.29188C31.3 5.94188 30.07 7.60187 28.77 9.21187C28.6652 9.30567 28.5815 9.4205 28.5241 9.54887C28.4667 9.67724 28.4371 9.81627 28.4371 9.95687C28.4371 10.0975 28.4667 10.2365 28.5241 10.3649C28.5815 10.4932 28.6652 10.6081 28.77 10.7019C31.16 13.8719 33.53 17.0519 35.97 20.3119ZM68.79 0.461873V1.86188C67.7786 1.79554 66.7645 1.94201 65.8132 2.29184C64.8619 2.64167 63.9945 3.18708 63.2671 3.89288C62.5396 4.59867 61.9682 5.44916 61.5898 6.38944C61.2113 7.32973 61.0343 8.33892 61.07 9.35187V20.3519H59.64V0.541875H61.04V4.60187C62.77 1.64187 65.44 0.541873 68.79 0.461873ZM0 9.80187C0.21 8.80187 0.34 7.71187 0.63 6.69187C2.36 0.541873 9.41 -2.01812 14.26 1.79188C17.1 4.02188 17.81 7.18187 17.67 10.7419H1.67C1.41 17.1019 6 20.9419 11.87 18.9819C12.8222 18.6413 13.6746 18.0689 14.3502 17.3164C15.0259 16.564 15.5035 15.6551 15.74 14.6719C16.05 13.6719 16.55 13.5019 17.5 13.7919C17.3435 15.0093 16.9131 16.1754 16.241 17.2025C15.569 18.2296 14.6729 19.091 13.62 19.7219C11.8804 20.6732 9.88455 21.05 7.91784 20.7986C5.95114 20.5471 4.1143 19.6802 2.67 18.3219C1.24116 16.7153 0.377205 14.6854 0.21 12.5419C0.21 12.2019 0.08 11.8619 0.00999999 11.5419C0.00333332 10.9485 0 10.3685 0 9.80187ZM1.69 9.37187H16.16C16.07 4.76187 13.16 1.49187 9.28 1.46187C4.96 1.40187 1.87 4.60187 1.68 9.35187L1.69 9.37187Z" fill="#3F873F"/>
</svg>
