<svg width="126" height="126" viewBox="0 0 126 126" fill="none" xmlns="http://www.w3.org/2000/svg">
<path d="M0 0H125.184V125.185H0V0Z" fill="#F0DB4F"/>
<path d="M116.347 93.736C115.43 88.025 111.706 83.228 100.675 78.755C96.843 76.994 92.571 75.733 91.298 72.829C90.846 71.139 90.786 70.187 91.072 69.164C91.893 65.844 95.856 64.809 98.997 65.761C101.02 66.439 102.935 67.998 104.09 70.485C109.492 66.987 109.481 67.01 113.253 64.606C111.872 62.465 111.135 61.477 110.231 60.561C106.982 56.932 102.555 55.063 95.475 55.206L91.787 55.683C88.253 56.576 84.885 58.431 82.91 60.918C76.984 67.642 78.674 79.41 85.885 84.253C92.989 89.585 103.425 90.798 104.758 95.784C106.055 101.888 100.272 103.864 94.524 103.162C90.288 102.281 87.932 100.128 85.385 96.213C80.697 98.926 80.697 98.926 75.877 101.698C77.02 104.197 78.221 105.328 80.137 107.493C89.205 116.691 111.897 116.239 115.967 102.317C116.132 101.839 117.228 98.651 116.347 93.736ZM69.462 55.943H57.753L57.705 86.215C57.705 92.653 58.038 98.555 56.991 100.364C55.278 103.922 50.839 103.481 48.816 102.791C46.757 101.779 45.71 100.34 44.497 98.306C44.164 97.722 43.914 97.27 43.83 97.235L34.31 103.065C35.893 106.314 38.225 109.134 41.212 110.966C45.674 113.644 51.671 114.465 57.943 113.025C62.025 111.836 65.547 109.373 67.391 105.624C70.057 100.709 69.485 94.76 69.461 88.18C69.521 77.445 69.462 66.712 69.462 55.943Z" fill="#323330"/>
</svg>
