<svg width="128" height="128" viewBox="0 0 128 128" fill="none" xmlns="http://www.w3.org/2000/svg">
<path d="M8.98253 78.0799C8.04586 78.3263 6.70746 79.0987 6.07488 79.7668L5.45339 80.3949L5.28027 78.1831H2.98744L2.93528 86.1991L2.89644 94.2318H5.50556L5.57991 89.008C5.66647 83.1128 5.7708 82.5535 6.88502 81.4137C7.69517 80.5891 8.96588 80.1297 10.0757 80.2562C11.0112 80.3594 11.6627 80.78 12.1565 81.6212C12.4895 82.185 12.5072 82.5879 12.5638 88.2189L12.616 94.2318H15.2251L15.2773 88.6573C15.3294 83.3081 15.3472 83.0606 15.719 82.3581C17.0762 79.8522 20.6575 79.4671 21.8361 81.6945C22.1912 82.3581 22.209 82.7266 22.2612 88.3055L22.33 94.2318H24.7837L24.7282 87.6907L24.6761 81.1651L24.1811 80.2384C23.0891 78.1665 20.0715 77.3596 17.5701 78.4483C17.1628 78.6259 16.387 79.203 15.841 79.7091C14.9266 80.5725 14.8356 80.6246 14.6447 80.3084C14.1852 79.5193 13.4261 78.8168 12.667 78.4483C11.7659 78.0444 9.86259 77.8369 8.98253 78.0799Z" fill="#850000"/>
<path d="M30.953 78.0966C28.82 78.5516 26.7569 80.0775 25.9457 81.8332C24.6927 84.4823 24.7449 88.2889 26.0677 90.8636C27.4106 93.4949 30.8842 95.0031 34.0394 94.3539C38.3453 93.4439 40.3518 90.443 40.0522 85.3757C40 84.4989 39.8402 83.3947 39.6838 82.8875C39.0856 80.9754 37.3565 79.1853 35.4144 78.465C34.2691 78.0278 32.1183 77.8546 30.953 78.0966ZM34.5687 80.6247C36.4554 81.5003 37.3732 83.3081 37.3565 86.1647C37.3388 89.0613 36.4931 90.8636 34.7285 91.7614C33.5455 92.3718 31.5734 92.3895 30.4758 91.8302C29.7212 91.4274 28.82 90.5129 28.395 89.7061C27.6015 88.1801 27.5671 84.621 28.3262 82.9919C29.1718 81.1496 30.5679 80.2385 32.5223 80.2207C33.3724 80.2041 33.9006 80.3073 34.5687 80.6247ZM46.4557 78.1487C45.2016 78.5172 44.4436 78.9378 43.7201 79.6747C43.3339 80.0609 42.961 80.3772 42.8922 80.3772C42.8222 80.3772 42.7534 79.87 42.7534 79.2374V78.0799L41.657 78.131L40.5472 78.1831L40.495 86.1991L40.4595 94.2318H43.1041V89.1823C43.1219 83.8497 43.2084 82.9741 43.9143 81.9209C44.4092 81.1485 45.731 80.4116 46.8974 80.2562C48.571 80.0265 50.2834 80.9931 50.6696 82.3926C50.795 82.8354 50.8638 85.1282 50.8638 88.6573V94.2318H53.5262L53.474 87.9548L53.4218 81.6956L52.9624 80.7112C52.433 79.6059 51.6406 78.8856 50.3877 78.3962C49.2945 77.9745 47.4789 77.8535 46.4557 78.1487ZM59.3259 78.0799C56.6646 78.6603 54.7791 80.6768 54.0378 83.711C53.7037 85.0594 53.7559 87.6208 54.1243 88.8826C55.2042 92.6026 57.6013 94.4449 61.0738 94.1985C62.4134 94.0931 63.5786 93.6381 64.4765 92.849C65.0757 92.3207 65.1312 92.303 65.2356 92.637C65.4131 93.2141 65.1312 95.4759 64.7927 96.2483C64.1258 97.7576 62.8029 98.4412 60.5789 98.4412C58.589 98.4246 57.2451 97.6866 56.9288 96.4081C56.8422 96.0752 56.6646 95.9875 56.0143 95.8976C55.6053 95.8529 55.1987 95.7889 54.7958 95.7056C54.4273 95.6368 54.3885 95.689 54.3885 96.3737C54.4062 98.0561 55.6758 99.5299 57.7223 100.232C58.6245 100.549 59.2749 100.635 60.6488 100.635C63.8261 100.635 66.0113 99.5122 67.0689 97.3537C67.8624 95.7578 67.9878 93.8989 67.9312 85.3757L67.8791 78.1842H65.5863L65.5341 79.0987C65.4997 79.6059 65.4298 80.0265 65.3787 80.0265C65.3221 80.0265 65.0058 79.7823 64.654 79.4838C63.3145 78.3096 61.0206 77.7115 59.3259 78.0799ZM62.8029 80.6413C63.2979 80.9054 63.9304 81.3782 64.1946 81.7289C66.1711 84.3047 65.7982 89.6195 63.5065 91.2664C61.2681 92.8834 58.1462 92.0033 57.0364 89.463C56.4704 88.1635 56.3306 85.2192 56.7734 83.6244C57.1063 82.3404 58.0563 81.1141 59.1362 80.5548C60.085 80.0443 61.672 80.0775 62.8029 80.6413ZM73.8753 78.1665C72.4137 78.5871 71.972 78.7991 71.0009 79.536C69.1143 80.941 68.2353 83.0951 68.252 86.2502C68.252 88.5486 68.6038 89.9358 69.5571 91.4107C70.8278 93.3562 72.9952 94.4449 75.6387 94.4626C78.6907 94.4793 81.1056 93.1265 82.3241 90.7249L82.94 89.4986L83.4861 90.6205C85.4803 94.8133 91.7229 95.8277 95.2687 92.5671C95.8325 92.0566 96.4484 91.3408 96.626 91.0068C96.8213 90.6561 97.0111 90.3742 97.0632 90.3742C97.1198 90.3742 97.3107 90.7426 97.4883 91.2154C98.3728 93.3218 100.558 94.4793 103.679 94.4615C105.495 94.4615 106.835 94.1286 108.053 93.3562C108.777 92.9012 109.939 91.6005 109.939 91.232C109.939 91.1632 110.026 90.8813 110.134 90.6217L110.307 90.1267L110.818 91.0068C113.026 94.8655 119.181 95.7234 122.528 92.6537C123.394 91.848 124.574 89.7627 124.293 89.4986C124.205 89.412 123.607 89.2688 122.952 89.1989L121.792 89.0435L121.505 89.6373C120.712 91.2842 119.585 92.1121 117.876 92.2508C115.176 92.4983 113.147 90.8292 112.618 87.9726C112.531 87.4654 112.496 87.006 112.548 86.9538C112.6 86.9016 115.336 86.8672 118.613 86.8672H124.574V85.9217C124.574 84.7076 124.344 83.5157 123.855 82.2194C123.286 80.7101 121.562 79.0288 119.993 78.4484C118.297 77.8158 115.952 77.8546 114.278 78.5349C111.474 79.6747 109.778 82.5191 109.761 86.0427V87.2523L109.059 86.6375C108.3 86.0083 106.784 85.3934 104.386 84.7642C101.702 84.0617 100.804 83.7099 100.328 83.165C99.8166 82.5535 99.7822 82.1506 100.151 81.4481C100.558 80.6413 101.684 80.2041 103.362 80.2041C105.282 80.2041 106.146 80.6413 106.766 81.9031C107.117 82.6223 107.277 82.7965 107.559 82.7444C107.754 82.71 108.283 82.6223 108.755 82.5712C109.744 82.4492 109.818 82.185 109.163 80.7978C108.3 78.9555 106.306 78.01 103.328 78.0278C101.932 78.0444 101.351 78.1143 100.524 78.4484C98.7235 79.1331 97.7014 80.3428 97.4361 82.1151L97.3107 82.9219L96.7647 81.8676C94.0157 76.605 85.831 76.7138 83.3817 82.0419L82.94 83.0085L82.3241 81.7822C81.5473 80.2385 80.3298 79.1498 78.674 78.5172C77.2091 77.9578 75.1626 77.8147 73.8753 78.1665ZM77.8073 80.6591C79.6229 81.5524 80.5251 83.3781 80.5251 86.1636C80.5074 90.0224 78.7262 92.303 75.7264 92.303C73.8919 92.303 72.3582 91.2842 71.5303 89.5507C71.0919 88.6052 71.0531 88.3754 71.0531 86.1647C71.0531 83.5856 71.2484 82.852 72.2705 81.6557C73.4891 80.2207 75.9905 79.7657 77.8073 80.6591ZM91.8439 80.4637C92.694 80.8144 93.8382 81.8687 94.2455 82.6578C95.0223 84.166 95.1433 87.3222 94.5107 89.1645C94.1556 90.1999 93.1878 91.3397 92.2512 91.7958C90.6642 92.6026 88.3713 92.3374 87.0673 91.1965C84.9166 89.321 84.6525 84.0617 86.6068 81.7988C87.8253 80.3594 90.1692 79.7834 91.8439 80.4637ZM119.142 80.537C120.539 81.1318 121.578 82.5535 121.631 83.9363L121.665 84.6732H112.675L112.727 84.1483C112.848 82.6744 113.87 81.2917 115.319 80.5725C116.268 80.0953 118.085 80.0764 119.142 80.537ZM98.759 85.4978C99.4648 86.147 100.454 86.5332 103.592 87.3733C105.088 87.7773 106.519 88.2545 106.766 88.4276C108.283 89.5152 107.49 91.6182 105.352 92.1299C104.083 92.424 102.356 92.2686 101.334 91.7437C100.627 91.393 100.415 91.1455 99.9764 90.2177L99.4482 89.1301L97.3673 89.3376L97.4894 88.5142C97.5404 88.0592 97.597 86.8495 97.597 85.8307V83.9707L97.93 84.5001C98.1042 84.7819 98.4771 85.2381 98.759 85.4978ZM69.7702 25.2428C68.161 25.3083 65.452 25.7378 65.452 25.9198C65.452 25.9975 67.3641 26.9519 67.5073 26.9519C67.646 26.9519 69.8656 28.0617 70.355 28.3691C71.0009 28.7797 71.4604 29.1537 71.3261 29.1537C71.2395 29.1537 68.9589 28.2737 68.0966 27.8997C67.3941 27.6011 64.472 26.7344 63.0459 26.3959C62.2791 26.2183 61.9539 26.1495 60.6444 25.9109C58.7111 25.5558 56.4438 25.538 55.4505 25.8632C54.0378 26.3226 53.7215 26.8864 53.7215 28.9706C53.7215 30.1159 53.777 30.6053 54.0289 31.6374C54.1332 32.088 54.4406 33.0724 54.5882 33.4064C54.6271 33.5096 54.7614 33.8348 54.8746 34.1256C54.9911 34.4119 55.3385 35.1488 55.6459 35.7514C57.366 39.1629 59.9419 42.0106 63.5753 44.5165C64.7184 45.3012 67.8369 46.7927 69.0843 47.149C69.4017 47.2355 69.5094 47.4175 69.2497 47.4175C68.9589 47.4175 66.3276 46.6884 65.786 46.4587C65.5806 46.3695 65.3722 46.2873 65.1612 46.2123C63.289 45.4532 60.8952 43.8973 58.9142 42.1283C56.7437 40.1975 55.0088 37.827 53.8247 35.1743C53.0667 33.463 52.5507 31.4643 52.4253 29.7253C52.3476 28.7331 52.2699 28.4901 52.0091 28.5034C51.9225 28.5034 51.1068 28.4723 50.2001 28.4257C47.7519 28.3214 44.3959 28.5899 41.0799 29.1626C34.733 30.2413 27.8878 32.7383 20.8395 36.5449C19.667 37.1776 18.5088 37.8366 17.3659 38.5215C17.2327 38.5991 16.811 38.8544 16.4259 39.0985C16.0408 39.336 15.5891 39.6057 15.4249 39.7089C15.0608 39.9176 11.0334 42.6532 10.5529 43.0161C10.3698 43.1515 9.86703 43.5244 9.44642 43.8274C7.53425 45.2457 3.36921 48.6394 3.1306 48.9823C3.01296 49.1555 3.19497 49.242 3.44689 49.1555C3.5723 49.1077 3.89747 49.0434 4.15716 49.0034C4.42684 48.9646 5.12046 48.7826 5.69644 48.5928C6.28241 48.4097 6.90611 48.2188 7.09255 48.1711C8.51419 47.8381 9.09017 47.7205 9.92807 47.5995C10.301 47.5474 10.8603 47.4653 11.1766 47.4175C15.083 46.8404 16.9464 46.6973 18.6843 46.8316C22.4654 47.1401 26.08 47.7771 28.1486 48.514C29.6956 49.0689 32.8475 50.7724 34.2347 51.7957C35.0326 52.3983 37.6084 54.9608 38.1744 55.7354C38.6184 56.348 39.1067 56.8807 39.2243 56.8807C39.2587 56.8807 39.3109 54.9297 39.3197 52.5503L39.3464 48.2277L44.4048 48.1977C48.3845 48.18 49.4899 48.211 49.5598 48.2976C49.6552 48.4197 49.8849 48.8303 50.6429 50.2353C51.3676 51.5837 51.7228 52.2329 51.9436 52.628C52.0568 52.8366 52.3254 53.3349 52.5507 53.7245C52.7582 54.1196 53.1533 54.8431 53.4218 55.3414C53.6904 55.8408 53.9124 56.2603 53.9124 56.2781C53.9124 56.3647 54.3063 56.8807 54.3763 56.8807C54.4151 56.8807 54.5094 56.7375 54.576 56.5777C54.6537 56.4035 54.8568 56.0229 55.0177 55.7365C55.1908 55.4458 55.4983 54.882 55.7113 54.4924C55.9233 54.0974 56.2141 53.5558 56.3661 53.2961C56.7901 52.5414 57.2318 51.718 57.5969 51.0499C57.7789 50.7036 58.0696 50.1698 58.2383 49.8535C58.4115 49.5372 58.6634 49.0911 58.7977 48.8481C58.8954 48.6576 59.0055 48.4737 59.1273 48.2976C59.2005 48.211 60.3369 48.18 64.4332 48.1977L69.6359 48.2277L69.6614 56.6732C69.6836 63.3275 69.7091 65.1043 69.809 65.1043C69.8645 65.0954 70.2507 64.8745 70.6458 64.5971C71.2007 64.2075 71.4426 63.9689 71.699 63.5261C72.2883 62.5251 73.9485 60.947 75.0672 60.3355C76.4222 59.5858 77.8796 59.0384 79.3932 58.7108C80.9324 58.3856 81.383 58.3379 84.8733 58.2113C91.2457 57.9905 92.1912 57.9517 92.239 57.9039C92.2645 57.8773 92.1779 57.6265 92.057 57.3402C91.9227 57.0627 91.6885 56.5467 91.5276 56.2049C90.9205 54.8909 90.9205 54.4536 91.5542 53.811C91.9871 53.3649 93.1013 52.9709 95.0168 52.5892C95.3342 52.5192 95.7281 52.4371 95.8935 52.3761C96.0533 52.3295 96.2575 52.2939 96.3441 52.2939C96.5827 52.2939 98.4982 51.8212 98.9021 51.6703C99.1796 51.5571 100.679 51.2319 102.469 50.8856C103.246 50.7336 105.266 50.3307 106.939 49.9967C107.997 49.788 109.102 49.5672 109.389 49.5106C109.679 49.4507 110.091 49.3685 110.303 49.3286C110.515 49.2809 110.792 49.2254 110.928 49.2032C111.061 49.1732 111.738 49.0434 112.418 48.9002C113.112 48.7526 113.801 48.6228 113.966 48.6006C114.447 48.5529 118.072 47.6817 118.908 47.4175C120.235 46.9847 120.629 46.8149 121.466 46.2511C122.372 45.6352 122.619 45.3012 123.512 43.5244C124.505 41.5434 124.648 41.2094 124.926 40.377C125.358 39.0508 125.333 38.5437 124.781 37.9888C124.401 37.607 123.573 37.2119 122.966 37.1253C122.515 37.0699 122.459 37.0865 122.233 37.3295C122.099 37.4727 121.986 37.6414 121.986 37.7024C121.986 37.7846 121.83 38.2096 121.401 39.2417C121.362 39.3449 121.276 39.6057 121.206 39.8133C121.139 40.0403 121.059 40.2634 120.967 40.4813C120.842 40.7499 120.834 40.7022 120.88 39.9564C120.928 39.2195 121.055 38.5991 121.332 37.6636C121.38 37.4816 121.449 37.1731 121.474 36.9822L121.522 36.6404L120.525 36.2375C119.704 35.9019 118.887 35.5578 118.073 35.2054C117.753 35.0787 117.431 34.9544 117.109 34.8325C116.776 34.7118 116.446 34.58 116.122 34.4374C115.787 34.2918 115.451 34.1519 115.112 34.0179C114.465 33.7704 112.215 33.008 110.303 32.4043C109.783 32.24 106.757 31.3345 106.458 31.2468C105.843 31.0825 105.392 30.9616 105.115 30.8739C104.958 30.8351 104.585 30.7318 104.295 30.653C102.604 30.1847 102.162 30.0682 101.555 29.8984C101.221 29.7989 100.884 29.7094 100.545 29.6298C100.363 29.5821 99.8643 29.4656 99.4393 29.3613C98.6979 29.1792 95.5939 28.4645 93.9125 28.0828C93.5113 27.988 93.1096 27.8955 92.7073 27.8053C92.4207 27.7417 92.1328 27.684 91.8439 27.6322C91.4425 27.5586 91.0421 27.4791 90.6431 27.3936C90.0189 27.2707 89.3933 27.1549 88.7664 27.0462C88.2061 26.9457 87.6452 26.8477 87.084 26.7521C84.4316 26.2749 84.2485 26.245 79.4886 25.72C76.5543 25.3871 72.6134 25.1096 71.6513 25.1563C71.4992 25.1563 70.6458 25.1951 69.7702 25.2428ZM58.6545 29.955C61.1904 30.7796 63.6619 31.8971 65.3565 32.9847C66.7005 33.857 68.374 35.2442 68.8246 35.8646L69.0199 36.1243L68.6515 35.9811C68.4517 35.8946 68.0267 35.7126 67.7104 35.5605C66.0202 34.7759 65.8382 34.706 65.8382 34.8802C65.8382 34.928 66.2321 35.5605 66.7005 36.2675C67.1821 36.9822 67.5672 37.6159 67.5672 37.6714C67.5672 37.7191 67.3852 37.6414 67.1644 37.4894C66.2976 36.8956 64.2678 36.0466 64.1513 36.2198C64.1258 36.2675 64.7506 37.061 65.5474 37.9888C66.3354 38.9165 66.9901 39.7089 66.9901 39.7655C66.9901 39.9098 66.8348 39.8909 66.1067 39.6224C65.3565 39.3538 65.1612 39.3283 65.1612 39.5058C65.1612 39.6313 66.787 41.8209 67.4329 42.58C67.615 42.7875 67.7581 42.9873 67.7581 43.035C67.7581 43.2647 65.5086 41.8031 63.9127 40.5413C61.6332 38.7257 59.4302 36.2841 58.2683 34.2687C57.3194 32.6218 56.9898 31.7329 56.9898 30.7574C56.9898 30.1847 57.0198 30.0682 57.2329 29.8695C57.3549 29.7341 57.5103 29.6298 57.5658 29.6298C57.6268 29.6298 58.104 29.7741 58.6545 29.955ZM89.0095 33.3598C89.9328 33.5241 91.1891 33.7405 91.7962 33.8492C92.4032 33.9536 93.1401 34.079 93.4309 34.1267C93.7172 34.1822 94.1334 34.261 94.3454 34.3087C94.554 34.3564 94.9702 34.4385 95.2554 34.5085C96.2098 34.716 96.4395 34.7637 97.9966 35.1288C99.669 35.5228 100.033 35.5961 100.545 35.7048C100.977 35.7869 101.411 35.9523 101.411 36.03C101.411 36.0555 101.091 36.2386 100.71 36.4373C99.9209 36.8324 99.7556 36.859 96.5083 36.9833C94.2932 37.0787 93.1146 37.0532 92.0359 36.8801C89.8629 36.546 88.7398 35.9345 87.8642 34.6128C87.5568 34.1611 87.3537 34.0312 86.6512 33.8492C86.3904 33.7716 85.9964 33.6672 85.7878 33.5984C85.5758 33.533 85.2107 33.4286 84.9776 33.3598C84.2884 33.1778 84.6824 33.0735 86.0741 33.0735C87.0363 33.0735 87.7088 33.139 89.0095 33.3598ZM100.573 46.7195C100.494 46.7367 100.411 46.7367 100.332 46.7195C100.266 46.6884 100.314 46.6718 100.448 46.6718C100.582 46.6718 100.63 46.6884 100.573 46.7195ZM100.157 46.8316C100.157 46.8793 100.045 46.9492 99.8976 46.9758C99.6024 47.0535 98.4283 47.3865 98.0421 47.513C97.9089 47.5607 97.4783 47.695 97.0843 47.8071C96.091 48.0934 93.6895 48.878 93.0447 49.1255C91.835 49.585 88.9862 51.0976 88.5833 51.496C87.9896 52.082 87.8031 52.7146 87.8897 53.9198C87.9197 54.4225 87.9896 55.064 88.0451 55.3414C88.1583 55.9441 88.0928 56.1094 87.8631 55.8098C87.63 55.5157 87.1395 54.4447 86.9963 53.9198C86.9186 53.6768 86.8321 53.3649 86.7844 53.2095C86.6101 52.6668 86.68 52.0254 86.9486 51.6314C87.3126 51.0765 88.6222 50.1876 90.1614 49.4507C90.8895 49.0989 93.0136 48.3708 94.9691 47.7982C95.363 47.6817 95.7925 47.5474 95.9268 47.513C97.314 47.0446 100.157 46.5941 100.157 46.8316ZM69.7469 47.4741C69.7213 47.4997 69.6337 47.513 69.5648 47.4819C69.4872 47.4519 69.5171 47.4264 69.6203 47.4264C69.7291 47.4175 69.7868 47.4431 69.7469 47.473V47.4741Z" fill="#850000"/>
<path d="M49.5853 65.9676V72.6596H54.3752C57.9698 72.6596 59.1916 72.6296 59.2782 72.5431C59.4225 72.3999 59.4524 59.2733 59.3093 59.2733C59.2616 59.2733 59.1916 59.3477 59.1617 59.4342C59.1273 59.5208 58.0774 61.1544 56.8256 63.0666C54.8479 66.0885 54.2975 66.8254 54.2975 66.4525C54.2975 66.3871 51.0203 61.2721 50.1835 60.0369C50.0694 59.8766 49.9691 59.7069 49.8838 59.5297C49.8061 59.3854 49.7107 59.2744 49.663 59.2744C49.6241 59.2744 49.5853 62.2875 49.5853 65.9676Z" fill="#850000"/>
</svg>
