<svg width="128" height="128" viewBox="0 0 128 128" fill="none" xmlns="http://www.w3.org/2000/svg">
<rect width="128" height="128" fill="#262525"/>
<path d="M85.988 76.075C86.62 70.813 86.431 70.041 90.35 70.893L91.345 70.981C94.359 71.118 98.302 70.496 100.617 69.42C105.603 67.107 108.559 63.243 103.643 64.258C92.428 66.571 91.657 62.775 91.657 62.775C103.5 45.204 108.451 22.9 104.178 17.44C92.524 2.54802 72.35 9.59001 72.012 9.77301L71.904 9.79401C69.688 9.33301 67.209 9.05901 64.423 9.01401C59.348 8.93101 55.497 10.345 52.576 12.56C52.576 12.56 16.587 -2.26698 18.261 31.206C18.617 38.327 28.468 85.088 40.217 70.964C44.511 65.8 48.661 61.433 48.661 61.433C50.722 62.802 53.189 63.5 55.777 63.249L55.977 63.079C55.915 63.72 55.942 64.347 56.058 65.089C53.031 68.472 53.921 69.066 47.869 70.311C41.747 71.573 45.344 73.819 47.691 74.406C50.539 75.119 57.124 76.128 61.575 69.897L61.398 70.608C62.586 71.558 62.505 77.435 62.673 81.634C62.841 85.833 63.123 89.751 63.979 92.063C64.835 94.373 65.845 100.324 73.798 98.62C80.444 97.194 85.525 95.144 85.988 76.075Z" fill="black"/>
<path d="M71.208 102.77C67.69 102.77 65.4 101.41 64.008 100.096C61.908 98.115 61.075 95.562 60.578 94.037L60.363 93.4C59.361 90.695 59.022 86.801 58.821 81.787C58.7914 81.0031 58.7664 80.2191 58.746 79.435C58.729 78.834 58.708 78.08 58.678 77.289C57.4106 77.8934 56.0654 78.3188 54.681 78.553C52.201 78.977 49.535 78.839 46.755 78.144C44.794 77.654 42.756 76.638 41.595 75.068C38.21 78.033 34.981 77.63 33.222 77.044C30.119 76.009 27.342 73.102 24.731 68.154C22.872 64.631 21.073 60.039 19.384 54.508C16.444 44.875 14.576 34.729 14.41 31.399C13.888 20.972 16.694 13.516 22.75 9.23898C32.305 2.48998 46.78 6.45798 52.057 8.25998C55.602 6.12298 59.773 5.08198 64.487 5.15798C67.019 5.19898 69.429 5.42198 71.668 5.81998C74.003 5.08598 78.617 4.03198 83.898 4.09698C93.628 4.21298 101.691 8.00498 107.214 15.063C111.155 20.099 109.207 30.673 107.694 36.529C105.567 44.764 101.838 53.525 97.258 61.151C98.502 61.16 100.303 61.01 102.865 60.482C107.919 59.438 109.396 62.148 109.797 63.361C111.404 68.228 104.419 71.905 102.24 72.916C99.448 74.213 94.897 75.002 91.169 74.831L91.006 74.82L90.027 74.734L89.93 75.55L89.837 76.349C89.587 86.013 88.206 92.133 85.365 96.178C82.388 100.417 78.249 101.606 74.604 102.387C73.4887 102.634 72.3504 102.763 71.208 102.77ZM63.806 67.596C66.077 69.413 66.276 72.832 66.453 79.222C66.475 80.019 66.496 80.774 66.524 81.479C66.61 83.613 66.811 88.611 67.593 90.723C67.704 91.021 67.803 91.325 67.907 91.645C68.779 94.317 69.217 95.656 72.988 94.848C76.155 94.17 77.782 93.561 79.056 91.747C80.908 89.109 81.944 83.806 82.134 75.98L85.986 76.074L82.16 75.615L82.272 74.66C82.639 71.512 82.903 69.236 85.008 67.732C86.696 66.525 88.621 66.642 90.154 66.918C88.47 65.647 88.004 64.153 87.88 63.541L87.559 61.959L88.461 60.619C93.661 52.903 97.95 43.42 100.228 34.601C102.568 25.539 101.854 20.726 101.141 19.816C91.695 7.74498 75.312 12.728 73.602 13.295L73.312 13.451L71.862 13.722L71.119 13.568C69.072 13.143 66.798 12.908 64.359 12.868C60.528 12.804 57.438 13.709 54.904 15.632L53.146 16.965L51.105 16.124C46.747 14.342 33.943 10.759 27.187 15.544C23.437 18.2 21.729 23.405 22.109 31.014C22.234 33.526 23.942 43.035 26.756 52.259C30.647 65.005 34.183 69.238 35.659 69.731C35.916 69.818 36.585 69.298 37.25 68.5C41.576 63.297 45.69 58.96 45.863 58.777L48.094 56.43L50.791 58.222C51.878 58.945 53.077 59.354 54.309 59.431L60.742 53.945L59.81 63.455C59.789 63.669 59.779 63.959 59.863 64.499L60.143 66.302L58.93 67.66L58.79 67.817L62.324 69.449L63.806 67.596Z" fill="black"/>
<path d="M103.646 64.258C92.43 66.571 91.659 62.774 91.659 62.774C103.501 45.203 108.451 22.898 104.179 17.439C92.524 2.54701 72.35 9.59001 72.013 9.77301L71.904 9.79201C69.688 9.33301 67.209 9.05901 64.422 9.01401C59.347 8.93101 55.497 10.344 52.576 12.559C52.576 12.559 16.586 -2.26699 18.26 31.206C18.616 38.327 28.467 85.088 40.216 70.964C44.51 65.8 48.659 61.433 48.659 61.433C50.72 62.802 53.187 63.5 55.774 63.249L55.975 63.079C55.913 63.72 55.941 64.347 56.055 65.089C53.029 68.472 53.917 69.066 47.867 70.311C41.744 71.573 45.341 73.819 47.69 74.406C50.537 75.119 57.123 76.128 61.573 69.897L61.395 70.608C62.581 71.558 63.414 76.787 63.274 81.527C63.134 86.267 63.041 89.521 63.976 92.063C64.911 94.604 65.842 100.324 73.796 98.62C80.442 97.195 83.886 93.504 84.366 87.348C84.706 82.971 85.475 83.618 85.524 79.704L86.142 77.851C86.853 71.917 86.255 70.003 90.35 70.894L91.345 70.981C94.359 71.119 98.303 70.496 100.618 69.42C105.604 67.106 108.561 63.243 103.646 64.258Z" fill="#336791"/>
<path d="M71.61 100.394C64.979 100.395 62.879 95.144 62.019 92.997C60.762 89.851 60.49 77.639 60.77 67.624C60.7887 67.2896 60.937 66.9757 61.1835 66.7491C61.43 66.5224 61.7553 66.4008 62.09 66.4102C62.4248 66.4196 62.7427 66.5592 62.9761 66.7993C63.2095 67.0394 63.3401 67.3611 63.34 67.696C63.017 79.247 63.476 89.714 64.406 92.042C65.859 95.674 68.062 98.851 74.293 97.517C80.208 96.248 82.423 94.005 83.409 88.287C84.167 83.898 85.663 71.413 85.847 68.949C85.8723 68.6091 86.0316 68.2932 86.2899 68.0708C86.5481 67.8484 86.8841 67.7377 87.224 67.763C87.5639 67.7883 87.8798 67.9476 88.1022 68.2059C88.3246 68.4641 88.4353 68.8001 88.41 69.14C88.218 71.704 86.728 84.166 85.941 88.724C84.776 95.479 81.765 98.543 74.831 100.03C73.773 100.264 72.6935 100.386 71.61 100.394ZM35.659 74.749C35.0795 74.7484 34.504 74.6534 33.955 74.468C29.648 73.031 25.546 66.017 21.762 53.619C18.882 44.181 17.057 34.331 16.897 31.13C16.422 21.64 18.867 14.925 24.162 11.173C34.638 3.74999 52.262 10.819 53.007 11.123C53.3196 11.2538 53.5679 11.5029 53.6978 11.8159C53.8277 12.129 53.8286 12.4806 53.7005 12.7944C53.5723 13.1081 53.3253 13.3585 53.0134 13.4911C52.7015 13.6236 52.3498 13.6275 52.035 13.502V13.503C51.865 13.433 34.965 6.66299 25.643 13.274C21.115 16.485 19.036 22.449 19.463 31.003C19.598 33.699 21.303 43.314 24.22 52.87C27.598 63.937 31.443 70.922 34.768 72.03C35.289 72.205 36.877 72.734 39.149 70.004C43.421 64.864 47.346 60.762 47.385 60.721C47.624 60.4894 47.9434 60.3595 48.2762 60.3586C48.609 60.3576 48.9292 60.4857 49.1695 60.7159C49.4098 60.9461 49.5515 61.2605 49.5649 61.593C49.5782 61.9255 49.4621 62.2503 49.241 62.499C49.202 62.539 45.337 66.58 41.125 71.647C39.13 74.045 37.217 74.749 35.659 74.749ZM91.579 63.92C91.3456 63.9203 91.1166 63.8571 90.9165 63.737C90.7164 63.6169 90.5528 63.4446 90.4433 63.2386C90.3338 63.0325 90.2825 62.8005 90.295 62.5675C90.3074 62.3344 90.3831 62.1092 90.514 61.916C102.485 44.152 106.687 22.689 103.088 18.091C98.558 12.303 92.161 9.27899 84.076 9.10599C78.089 8.97599 73.33 10.505 72.553 10.772L72.358 10.851C71.576 11.097 70.976 10.668 70.75 10.167C70.6212 9.87995 70.6018 9.55573 70.6953 9.25536C70.7889 8.95498 70.989 8.69915 71.258 8.53599L71.604 8.39399L71.587 8.39899L71.605 8.39299C72.926 7.90999 77.757 6.45999 83.742 6.52899C92.689 6.62299 100.079 10.074 105.113 16.506C107.495 19.55 107.5 26.563 105.128 35.746C102.71 45.108 98.16 55.171 92.646 63.353C92.5285 63.5279 92.3696 63.6712 92.1835 63.7701C91.9974 63.869 91.7897 63.9205 91.579 63.92ZM92.19 72.143C90.146 72.143 88.314 71.856 87.217 71.198C86.089 70.523 85.874 69.604 85.846 69.117C85.538 63.713 88.52 62.772 90.041 62.343C89.829 62.023 89.527 61.646 89.216 61.257C88.329 60.149 87.115 58.631 86.179 56.361C86.033 56.007 85.573 55.182 85.041 54.228C82.158 49.059 76.16 38.302 80.013 32.793C81.797 30.244 85.347 29.241 90.579 29.801C89.04 25.112 81.71 10.443 64.32 10.158C59.089 10.07 54.799 11.679 51.576 14.933C44.359 22.222 44.621 35.41 44.624 35.541C44.6284 35.7097 44.5995 35.8776 44.539 36.0351C44.4785 36.1926 44.3876 36.3367 44.2715 36.4591C44.1553 36.5815 44.0162 36.6798 43.862 36.7484C43.7078 36.817 43.5417 36.8546 43.373 36.859C43.2043 36.8634 43.0364 36.8345 42.8789 36.774C42.7214 36.7135 42.5773 36.6226 42.4549 36.5065C42.3325 36.3903 42.2342 36.2512 42.1656 36.097C42.097 35.9428 42.0594 35.7767 42.055 35.608C42.039 35.023 41.769 21.184 49.75 13.124C53.485 9.35199 58.401 7.48999 64.362 7.58699C75.49 7.76999 82.651 13.426 86.7 18.14C91.112 23.276 93.276 28.942 93.454 30.832C93.587 32.238 92.578 32.52 92.374 32.561L91.911 32.572C86.776 31.75 83.482 32.32 82.12 34.267C79.189 38.455 84.863 48.63 87.286 52.976C87.905 54.084 88.351 54.885 88.555 55.38C89.351 57.31 90.389 58.607 91.223 59.649C91.956 60.566 92.592 61.36 92.82 62.294C92.925 62.479 94.423 64.693 103.308 62.859C105.535 62.4 106.87 62.793 107.278 64.027C108.081 66.456 103.576 69.288 101.082 70.447C98.844 71.486 95.277 72.143 92.19 72.143ZM88.409 68.905C88.69 69.19 90.1 69.68 93.021 69.555C95.617 69.443 98.356 68.878 100 68.116C102.102 67.14 103.504 66.049 104.231 65.304L103.827 65.378C98.146 66.551 94.128 66.395 91.885 64.913C91.7341 64.8136 91.5888 64.7057 91.45 64.59C91.207 64.686 90.982 64.749 90.822 64.794C89.549 65.151 88.233 65.52 88.409 68.905ZM51.712 76.084C50.301 76.084 48.816 75.893 47.299 75.512C45.728 75.119 43.078 73.936 43.119 71.993C43.164 69.812 46.335 69.158 47.53 68.912C51.842 68.024 52.123 67.668 53.471 65.957C53.864 65.458 54.353 64.837 55.019 64.092C56.009 62.985 57.091 62.423 58.235 62.423C59.031 62.423 59.685 62.694 60.116 62.872C61.492 63.442 62.64 64.82 63.112 66.47C63.538 67.958 63.335 69.39 62.54 70.502C59.932 74.155 56.188 76.084 51.712 76.084ZM45.895 72.104C46.283 72.403 47.059 72.803 47.922 73.02C49.236 73.348 50.51 73.515 51.712 73.515C55.374 73.515 58.313 71.998 60.449 69.009C60.894 68.385 60.761 67.594 60.642 67.177C60.392 66.305 59.772 65.512 59.133 65.246C58.786 65.102 58.499 64.992 58.235 64.992C58.093 64.992 57.662 64.992 56.935 65.805C56.321 66.491 55.88 67.051 55.489 67.546C53.811 69.677 53.042 70.4 48.048 71.429C46.83 71.681 46.205 71.935 45.895 72.104ZM55.777 66.176C55.4702 66.1755 55.1737 66.0654 54.941 65.8655C54.7083 65.6657 54.5547 65.3892 54.508 65.086C54.4751 64.8726 54.4538 64.6576 54.444 64.442C51.17 64.38 48.012 62.976 45.615 60.474C42.584 57.311 41.204 52.929 41.83 48.452C42.51 43.59 42.256 39.298 42.119 36.992C42.0847 36.5177 42.0637 36.0425 42.056 35.567C42.058 35.161 42.066 34.082 45.671 32.255C46.953 31.605 49.524 30.471 52.332 30.18C56.986 29.7 60.053 31.772 60.971 36.016C63.449 47.476 61.167 52.545 59.501 56.246C59.19 56.934 58.897 57.586 58.663 58.216L58.456 58.773C57.576 61.133 56.815 63.172 57.049 64.696C57.1004 65.0329 57.0161 65.3764 56.8146 65.6513C56.6131 65.9261 56.3108 66.1098 55.974 66.162L55.777 66.176ZM44.634 35.922L44.685 36.84C44.827 39.235 45.091 43.693 44.375 48.809C43.859 52.501 44.987 56.106 47.47 58.697C49.432 60.745 52.016 61.875 54.671 61.875H54.726C55.024 60.622 55.517 59.3 56.048 57.875L56.254 57.322C56.519 56.61 56.829 55.921 57.157 55.192C58.761 51.628 60.757 47.192 58.458 36.559C58.002 34.454 56.898 33.235 55.083 32.833C51.355 32.009 45.8 34.813 44.634 35.922ZM52.39 35.377C52.326 35.831 53.223 37.044 54.391 37.206C55.558 37.369 56.557 36.421 56.62 35.967C56.683 35.512 55.787 35.012 54.618 34.849C53.451 34.686 52.452 34.922 52.39 35.377ZM54.66 37.654L54.332 37.631C53.607 37.53 52.874 37.073 52.373 36.408C52.197 36.175 51.909 35.721 51.966 35.317C52.048 34.724 52.77 34.37 53.899 34.37C54.152 34.37 54.414 34.389 54.679 34.425C55.295 34.511 55.868 34.689 56.291 34.925C57.024 35.335 57.078 35.791 57.045 36.028C56.954 36.681 55.912 37.654 54.66 37.654ZM52.816 35.453C52.853 35.733 53.546 36.658 54.45 36.783L54.659 36.798C55.493 36.798 56.117 36.141 56.19 35.926C56.113 35.78 55.577 35.415 54.559 35.275C54.3401 35.2435 54.1192 35.2275 53.898 35.227C53.246 35.226 52.897 35.373 52.816 35.453ZM87.937 34.45C88 34.905 87.105 36.118 85.936 36.28C84.768 36.442 83.769 35.495 83.705 35.04C83.643 34.586 84.539 34.085 85.707 33.923C86.875 33.759 87.873 33.997 87.937 34.45ZM85.667 36.512C84.542 36.512 83.573 35.637 83.493 35.07C83.401 34.389 84.522 33.871 85.678 33.711C85.932 33.675 86.184 33.657 86.427 33.657C87.424 33.657 88.084 33.95 88.15 34.421C88.193 34.727 87.959 35.198 87.555 35.622C87.289 35.902 86.729 36.387 85.967 36.492L85.667 36.512ZM86.426 34.085C86.203 34.085 85.971 34.102 85.736 34.134C84.574 34.295 83.883 34.762 83.916 35.012C83.955 35.286 84.696 36.084 85.666 36.084L85.905 36.067C86.539 35.978 87.015 35.565 87.242 35.326C87.598 34.951 87.74 34.599 87.723 34.478C87.702 34.321 87.274 34.085 86.426 34.085ZM89.62 60.538C89.3872 60.5379 89.1589 60.4745 88.9593 60.3547C88.7598 60.2349 88.5965 60.0632 88.487 59.8578C88.3774 59.6525 88.3257 59.4212 88.3373 59.1888C88.3489 58.9563 88.4235 58.7314 88.553 58.538C91.289 54.451 90.788 50.282 90.304 46.252C90.097 44.534 89.884 42.759 89.94 41.054C89.996 39.301 90.218 37.855 90.434 36.455C90.689 34.798 90.93 33.231 90.83 31.373C90.8226 31.0391 90.9455 30.7154 91.1726 30.4704C91.3997 30.2255 91.7131 30.0785 92.0466 30.0606C92.3802 30.0426 92.7076 30.1552 92.9596 30.3744C93.2116 30.5936 93.3685 30.9022 93.397 31.235C93.511 33.359 93.238 35.131 92.974 36.846C92.77 38.169 92.559 39.537 92.508 41.136C92.459 42.645 92.652 44.248 92.856 45.944C93.372 50.231 93.955 55.09 90.689 59.967C90.441 60.337 90.034 60.538 89.62 60.538Z" fill="white"/>
<path d="M2.83501 103.184C4.2708 102.951 5.72347 102.838 7.17801 102.846C9.41301 102.846 11.052 103.366 12.092 104.302C13.054 105.134 13.626 106.408 13.626 107.969C13.626 109.555 13.157 110.803 12.273 111.713C11.077 112.987 9.12701 113.637 6.91701 113.637C6.24101 113.637 5.61701 113.611 5.09801 113.481V120.502H2.83501V103.184ZM5.09801 111.634C5.59201 111.764 6.21601 111.816 6.97001 111.816C9.69901 111.816 11.364 110.49 11.364 108.072C11.364 105.758 9.72601 104.64 7.23001 104.64C6.24201 104.64 5.48801 104.718 5.09801 104.822V111.634ZM27.328 114.104C27.328 118.758 24.103 120.787 21.061 120.787C17.655 120.787 15.029 118.291 15.029 114.312C15.029 110.1 17.785 107.63 21.269 107.63C24.884 107.629 27.328 110.256 27.328 114.104ZM17.344 114.234C17.344 116.99 18.93 119.07 21.166 119.07C23.35 119.07 24.987 117.016 24.987 114.182C24.987 112.05 23.922 109.346 21.217 109.346C18.512 109.346 17.344 111.842 17.344 114.234ZM29.901 118.16C30.577 118.602 31.773 119.07 32.917 119.07C34.581 119.07 35.361 118.238 35.361 117.198C35.361 116.106 34.712 115.508 33.021 114.884C30.759 114.078 29.693 112.83 29.693 111.322C29.693 109.294 31.331 107.63 34.035 107.63C35.309 107.63 36.428 107.994 37.13 108.41L36.558 110.074C35.7842 109.597 34.8929 109.345 33.984 109.346C32.632 109.346 31.878 110.126 31.878 111.062C31.878 112.102 32.633 112.57 34.271 113.194C36.455 114.026 37.573 115.118 37.573 116.99C37.573 119.2 35.857 120.76 32.867 120.76C31.489 120.76 30.215 120.422 29.331 119.902L29.901 118.16ZM43.266 104.301V107.915H46.541V109.657H43.266V116.443C43.266 118.003 43.707 118.887 44.982 118.887C45.4289 118.893 45.8748 118.841 46.308 118.731L46.412 120.447C45.971 120.629 45.268 120.759 44.385 120.759C43.319 120.759 42.46 120.421 41.914 119.797C41.265 119.121 41.03 118.003 41.03 116.521V109.657H39.08V107.915H41.03V104.899L43.266 104.301ZM59.802 107.916C59.749 108.826 59.698 109.84 59.698 111.374V118.68C59.698 121.566 59.126 123.334 57.904 124.427C56.682 125.571 54.914 125.935 53.328 125.935C51.82 125.935 50.156 125.571 49.141 124.895L49.713 123.153C50.545 123.673 51.845 124.141 53.405 124.141C55.745 124.141 57.461 122.919 57.461 119.747V118.343H57.409C56.707 119.513 55.355 120.449 53.405 120.449C50.285 120.449 48.049 117.797 48.049 114.312C48.049 110.048 50.831 107.63 53.717 107.63C55.902 107.63 57.098 108.774 57.644 109.814H57.696L57.8 107.916H59.802ZM57.436 112.882C57.436 112.492 57.41 112.154 57.306 111.842C56.89 110.516 55.772 109.424 54.108 109.424C51.923 109.424 50.364 111.27 50.364 114.182C50.364 116.652 51.612 118.706 54.082 118.706C55.486 118.706 56.76 117.822 57.254 116.366C57.384 115.976 57.437 115.534 57.437 115.144L57.436 112.882ZM63.337 111.842C63.337 110.36 63.311 109.086 63.233 107.916H65.236L65.313 110.386H65.417C65.989 108.696 67.367 107.63 68.901 107.63C69.161 107.63 69.342 107.656 69.55 107.708V109.866C69.2942 109.81 69.0328 109.784 68.771 109.788C67.159 109.788 66.014 111.01 65.703 112.726C65.6388 113.078 65.604 113.434 65.599 113.792V120.5H63.337V111.842ZM72.854 114.624C72.906 117.718 74.881 118.992 77.169 118.992C78.808 118.992 79.795 118.706 80.653 118.342L81.043 119.98C80.237 120.344 78.859 120.76 76.857 120.76C72.983 120.76 70.669 118.212 70.669 114.416C70.669 110.62 72.905 107.629 76.571 107.629C80.679 107.629 81.771 111.243 81.771 113.557C81.771 114.025 81.719 114.389 81.693 114.623L72.854 114.624ZM79.562 112.986C79.587 111.53 78.963 109.268 76.39 109.268C74.076 109.268 73.062 111.4 72.879 112.986H79.562Z" fill="black"/>
<path d="M84.371 117.744C85.5968 118.48 86.9972 118.875 88.427 118.888C90.741 118.888 92.093 117.666 92.093 115.898C92.093 114.26 91.157 113.324 88.791 112.414C85.931 111.4 84.163 109.918 84.163 107.448C84.163 104.718 86.425 102.69 89.831 102.69C91.625 102.69 92.925 103.106 93.705 103.548L93.081 105.394C92.0582 104.844 90.9143 104.558 89.753 104.562C87.361 104.562 86.451 105.992 86.451 107.188C86.451 108.826 87.516 109.632 89.935 110.568C92.899 111.713 94.407 113.142 94.407 115.716C94.407 118.42 92.405 120.76 88.271 120.76C86.581 120.76 84.735 120.266 83.798 119.642L84.371 117.744ZM111.957 123.074C109.697 122.481 107.459 121.804 105.249 121.046C104.885 120.916 104.521 120.786 104.183 120.786C100.023 120.63 96.461 117.562 96.461 111.92C96.461 106.304 99.893 102.69 104.625 102.69C109.383 102.69 112.478 106.382 112.478 111.556C112.478 116.054 110.398 118.94 107.486 119.954V120.058C109.228 120.5 111.126 120.916 112.608 121.176L111.957 123.074ZM110.085 111.66C110.085 108.15 108.266 104.535 104.547 104.535C100.725 104.535 98.853 108.071 98.879 111.868C98.853 115.586 100.907 118.94 104.443 118.94C108.058 118.94 110.085 115.664 110.085 111.66ZM115.414 102.976H117.677V118.602H125.165V120.5H115.414V102.976Z" fill="#336791"/>
</svg>
